<?xml version="1.0" encoding="UTF-8" standalone="no"?>
<svg
   xmlns:dc="http://purl.org/dc/elements/1.1/"
   xmlns:cc="http://creativecommons.org/ns#"
   xmlns:rdf="http://www.w3.org/1999/02/22-rdf-syntax-ns#"
   xmlns:svg="http://www.w3.org/2000/svg"
   xmlns="http://www.w3.org/2000/svg"
   xmlns:sodipodi="http://sodipodi.sourceforge.net/DTD/sodipodi-0.dtd"
   xmlns:inkscape="http://www.inkscape.org/namespaces/inkscape"
   height="1792"
   viewBox="0 0 1792 1792"
   width="1792"
   version="1.1"
   id="svg4"
   sodipodi:docname="mercury.svg"
   inkscape:version="0.92.3 (unknown)">
  <metadata
     id="metadata10">
    <rdf:RDF>
      <cc:Work
         rdf:about="">
        <dc:format>image/svg+xml</dc:format>
        <dc:type
           rdf:resource="http://purl.org/dc/dcmitype/StillImage" />
      </cc:Work>
    </rdf:RDF>
  </metadata>
  <defs
     id="defs8" />
  <sodipodi:namedview
     pagecolor="#ffffff"
     bordercolor="#666666"
     borderopacity="1"
     objecttolerance="10"
     gridtolerance="10"
     guidetolerance="10"
     inkscape:pageopacity="0"
     inkscape:pageshadow="2"
     inkscape:window-width="1920"
     inkscape:window-height="1025"
     id="namedview6"
     showgrid="false"
     inkscape:zoom="0.13169643"
     inkscape:cx="972.98289"
     inkscape:cy="2120.619"
     inkscape:window-x="0"
     inkscape:window-y="27"
     inkscape:window-maximized="1"
     inkscape:current-layer="svg4" />
  <path
     d="m 1177.1186,323.59322 q 145,72 233.5,210.5 88.5,138.5 88.5,305.5 0,220.99998 -147.5,384.49998 -147.5,163.5 -364.49996,187.5 v 132 h 95.99996 q 14,0 23,9 9,9 9,23 v 64 q 0,14 -9,23 -9,9 -23,9 h -95.99996 v 96 q 0,14 -9,23 -9,9 -23,9 h -64 q -14,0 -23,-9 -9,-9 -9,-23 v -96 h -96 q -14,0 -23,-9 -9,-9 -9,-23 v -64 q 0,-14 9,-23 9,-9 23,-9 h 96 v -132 q -217,-24 -364.5,-187.5 -147.5,-163.5 -147.5,-384.49998 0,-167 88.5,-305.5 88.5,-138.5 233.5,-210.5 -165,-96 -228,-273 -6,-16 3.5,-29.5 9.5,-13.4999997 26.5,-13.4999997 h 69 q 21,0 29,19.9999997 44,106 140,171 96,65 214,65 117.99996,0 213.99996,-65 96,-65 140,-171 8,-19.9999997 37,-19.9999997 h 61 q 17,0 26.5,13.4999997 9.5,13.5 3.5,29.5 -63,177 -228,273 z M 923.11864,1287.5932 q 184.99996,0 316.49996,-131.5 131.5,-131.5 131.5,-316.49998 0,-185 -131.5,-316.5 -131.5,-131.5 -316.49996,-131.5 -185,0 -316.5,131.5 -131.5,131.5 -131.5,316.5 0,184.99998 131.5,316.49998 131.5,131.5 316.5,131.5 z"
     id="path2"
     inkscape:connector-curvature="0" />
  <path
     style="opacity:1;fill:#ff0000;fill-opacity:1;stroke:none;stroke-width:7.59322023;stroke-opacity:1"
     d="m 874.73898,1788.9627 c -5.42273,-5.4228 -9.11186,-31.5541 -9.11186,-64.5424 v -55.4305 h -55.43051 c -32.98832,0 -59.11964,-3.6891 -64.54237,-9.1118 -5.12526,-5.1253 -9.11187,-29.6862 -9.11187,-56.1368 0,-55.3461 1.22058,-56.2429 76.55323,-56.2429 h 52.53152 v -68.1943 c 0,-64.619 -0.89573,-68.3782 -17.08475,-71.7006 -120.26869,-24.6825 -167.02574,-42.464 -241.03331,-91.6641 -111.88041,-74.378 -206.50397,-207.189 -240.76595,-337.93252 -17.57188,-67.05421 -17.49429,-206.79969 0.15178,-273.35593 38.45892,-145.05682 144.70598,-287.46647 265.23231,-355.50766 19.83267,-11.19621 35.20894,-22.48158 34.16949,-25.0786 -1.03945,-2.59702 -24.10008,-21.65313 -51.24584,-42.34692 C 552.11515,233.74045 499.9172,169.36654 465.67852,97.501991 431.0591,24.838287 434.71871,17.464407 505.40063,17.464407 h 51.9489 l 27.57815,48.796407 c 53.2255,94.176516 151.38044,168.643016 251.19574,190.572846 54.57101,11.98948 165.63378,6.15453 215.53758,-11.32377 88.8487,-31.11838 171.1601,-104.26975 218.8926,-194.533179 l 17.7217,-33.512304 h 51.7127 c 72.8164,0 75.7934,7.528634 35.2997,89.271853 -36.3809,73.4409 -93.8391,141.21307 -156.0458,184.05645 -23.261,16.02048 -42.1912,31.12291 -42.0669,33.56095 0.1245,2.43803 20.9315,16.29355 46.2385,30.79005 85.0372,48.71146 180.4438,157.42172 223.3982,254.54916 72.5849,164.1272 61.7648,362.59454 -28.0805,515.06983 -82.6209,140.2149 -223.7961,242.2626 -378.46,273.5679 l -49.35595,9.9901 -2.17895,69.2643 -2.17895,69.2644 59.12815,2.2228 59.1281,2.2227 2.273,52.4728 c 1.596,36.8443 -0.6659,54.3369 -7.5932,58.7312 -5.4264,3.4421 -32.5572,6.3107 -60.2906,6.3747 l -50.42428,0.1162 -2.89499,57.3292 c -2.01199,39.8431 -6.31816,59.4938 -14.11807,64.4261 -16.19542,10.2412 -86.29055,8.9535 -97.02648,-1.7824 z m 157.15602,-511.308 c 75.1437,-17.7129 149.0268,-60.3888 209.6358,-121.0884 61.7323,-61.8247 96.5667,-122.6787 117.8421,-205.86482 38.7678,-151.58064 0.3349,-301.00457 -106.9292,-415.73349 C 1159.6564,435.72353 1056.0036,390.33671 922.57627,390.52766 792.00051,390.71452 702.12858,428.237 606.69415,522.41182 484.69737,642.79839 441.98032,814.21342 493.02228,978.55448 c 43.15767,138.95582 178.40436,265.21812 321.0999,299.76952 55.3021,13.3906 159.48495,13.0703 217.77282,-0.6697 z"
     id="path817"
     inkscape:connector-curvature="0" />
  <path
     style="opacity:1;fill:#ff0000;fill-opacity:1;stroke:none;stroke-width:1.89830506;stroke-opacity:1"
     d="m 889.53194,1793.8071 c -19.87015,-4.4402 -20.646,-7.0198 -22.06121,-73.3492 l -1.11381,-52.2034 -51.25424,-1.1173 c -56.71017,-1.2361 -66.51296,-2.8421 -70.72536,-11.5867 -4.42172,-9.1793 -6.15599,-24.6755 -6.15599,-55.0059 0,-37.0147 1.42672,-41.6469 14.64775,-47.5576 8.33092,-3.7244 13.39329,-4.1492 61.28445,-5.1419 l 52.20339,-1.0821 -0.56775,-59.7967 c -0.31225,-32.8881 -1.41359,-63.0022 -2.44741,-66.9203 -1.03381,-3.918 -3.76817,-8.3013 -6.07632,-9.7406 -2.30817,-1.4394 -22.13564,-6.5477 -44.06106,-11.352 -96.11039,-21.0594 -151.3135,-44.6247 -219.99902,-93.9138 C 491.85248,1232.3082 403.72399,1106.7331 370.16899,987.2331 352.88575,925.682 349.31811,809.70373 362.30049,731.44092 376.51751,645.7352 430.85176,539.63186 502.24486,458.15904 c 37.8463,-43.18967 76.85497,-75.87042 127.31716,-106.66392 28.62688,-17.46899 36.52371,-23.36611 36.52371,-27.27491 0,-2.52829 -19.38116,-19.01879 -51.25424,-43.60976 C 585.69917,258.13404 541.9049,213.96149 520.71217,185.6782 498.18473,155.61361 484.28368,132.86781 467.50046,98.609718 440.49663,43.489229 439.0759,27.891331 460.47094,21.433898 c 4.10093,-1.237739 26.59033,-2.593114 51.85208,-3.124983 l 44.61017,-0.939237 15.16507,27.20511 c 27.25066,48.88581 47.00871,76.088952 77.62938,106.881112 51.98436,52.27552 124.8304,93.51772 187.68102,106.2567 50.9817,10.33331 143.22074,6.88363 199.89904,-7.47608 50.1278,-12.70011 110.485,-49.79258 157.5012,-96.79231 33.1419,-33.13032 57.6637,-66.920237 82.519,-113.707666 l 11.9804,-22.551831 44.7955,1.031719 c 24.6375,0.567446 47.96,1.989262 51.8278,3.15959 8.4546,2.55825 14.7982,10.016999 14.7982,17.39968 0,9.488262 -7.9709,30.249252 -23.9684,62.427928 -40.0902,80.64096 -87.2961,136.53216 -162.5401,192.44537 -20.6203,15.32279 -37.4814,28.90458 -37.469,30.18172 0.028,2.87149 13.039,11.96509 42.6894,29.83585 45.6896,27.53789 75.1522,51.86109 118.1513,97.5411 59.2984,62.99571 102.0284,132.6727 126.4534,206.19935 44.4127,133.69542 38.6111,280.17468 -16.1648,408.13558 -51.2746,119.7816 -155.3981,227.995 -275.8976,286.7345 -46.1538,22.4985 -87.4315,36.147 -146.1695,48.3312 -18.7932,3.8983 -34.55981,7.4462 -35.03693,7.8842 -1.29427,1.1882 -5.19001,136.1569 -3.97437,137.6926 0.57488,0.7262 27.0995,2.3334 58.9435,3.5717 31.8441,1.2382 58.0946,2.4063 58.3344,2.5958 0.2398,0.1895 0.9516,20.7924 1.5818,45.7842 0.9013,35.7421 0.589,47.2628 -1.4631,53.9821 -3.9472,12.9242 -7.8289,13.785 -66.5316,14.7537 -48.23215,0.796 -48.90259,0.862 -49.66313,4.891 -0.42402,2.2463 -1.72064,22.4502 -2.88136,44.8977 -3.03996,58.7902 -5.77683,69.8068 -18.75728,75.5034 -9.32774,4.0935 -60.92971,5.1966 -76.83449,1.6424 z m 96.4182,-508.2446 c 71.15526,-7.105 139.67806,-35.3513 205.96606,-84.9029 27.5601,-20.6017 74.1281,-66.9897 94.181,-93.8169 56.1533,-75.123 85.049,-160.85902 87.5328,-259.71763 1.8785,-74.76338 -10.9315,-134.30005 -43.0665,-200.15873 -22.0933,-45.2789 -50.977,-85.4451 -89.0674,-123.85898 -69.3841,-69.97323 -142.5177,-109.94345 -229.9188,-125.6591 -65.26791,-11.73585 -148.74369,-9.20486 -209.41702,6.34955 -73.18554,18.76208 -138.98298,59.81325 -204.42857,127.54345 -68.99857,71.40722 -110.18013,157.08017 -123.55906,257.04881 -3.07974,23.01209 -3.07984,80.73651 -1.9e-4,105.35593 13.25352,105.95143 57.6955,193.1715 137.5345,269.9196 66.30151,63.7347 151.393,108.6326 227.68267,120.1348 36.98664,5.5766 100.68895,6.3424 146.56051,1.7621 z"
     id="path829"
     inkscape:connector-curvature="0" />
</svg>
